<svg xmlns="http://www.w3.org/2000/svg" viewBox="0 0 512 512"><path d="M500.88,289.17a15,15,0,0,0-18.37,10.6l-.35,1.3-34.71-9.3a194.93,194.93,0,0,0,0-71.54l34.71-9.3.35,1.29a15,15,0,1,0,29-7.76L503,172.89a15,15,0,1,0-29,7.76l.34,1.3-34.71,9.3a194.85,194.85,0,0,0-35.84-61.88l25.48-25.48.95,1a15,15,0,0,0,21.22-21.22L428.38,60.51a15,15,0,1,0-21.22,21.22l.95,1-25.48,25.48a194.78,194.78,0,0,0-61.89-35.84L330,37.61l1.3.34a15,15,0,0,0,7.77-29L307.54.52a15,15,0,1,0-7.77,29l1.3.35-9.3,34.71a194.93,194.93,0,0,0-71.54,0l-9.3-34.71,1.3-.35a15,15,0,0,0-7.77-29L172.89,9a15,15,0,0,0,7.77,29l1.3-.35,9.3,34.72a194.76,194.76,0,0,0-61.89,35.83L103.89,82.67l1-.94A15,15,0,0,0,83.62,60.51L60.51,83.62a15,15,0,0,0,21.22,21.22l1-1,25.48,25.48a194.85,194.85,0,0,0-35.84,61.88L37.61,182l.34-1.3a15,15,0,1,0-29-7.76L.51,204.46a15,15,0,0,0,29,7.76l.35-1.29,34.71,9.3a194.93,194.93,0,0,0,0,71.54l-34.71,9.3-.35-1.3a15,15,0,0,0-29,7.77L9,339.11a15,15,0,0,0,29-7.77L37.6,330l34.72-9.3a194.76,194.76,0,0,0,35.83,61.89L82.67,408.11l-1-.95a15,15,0,1,0-21.21,21.22l23.11,23.11a15,15,0,0,0,21.21-21.22l-1-.95,25.49-25.48a194.85,194.85,0,0,0,61.88,35.84L182,474.39l-1.29-.34a15,15,0,1,0-7.77,29l31.57,8.46a15,15,0,1,0,7.76-29l-1.29-.35,9.3-34.71a194.88,194.88,0,0,0,71.53,0l9.3,34.71-1.29.35a15,15,0,1,0,7.76,29L339.1,503a15,15,0,1,0-7.76-29l-1.3.34-9.3-34.71a194.89,194.89,0,0,0,61.89-35.84l25.48,25.48-.95.95a15,15,0,1,0,21.21,21.22l23.11-23.11a15,15,0,1,0-21.21-21.22l-.95.95-25.48-25.48a194.57,194.57,0,0,0,35.83-61.89l34.72,9.3-.35,1.3a15,15,0,0,0,29,7.77l8.46-31.57a15,15,0,0,0-10.6-18.38ZM256,420.76c-90.85,0-164.76-73.91-164.76-164.76S165.15,91.24,256,91.24,420.76,165.15,420.76,256,346.85,420.76,256,420.76Z" transform="translate(0 0)" fill="#42a834"/><circle cx="256" cy="143.53" r="15" fill="#42a834"/><circle cx="256" cy="368.47" r="15" fill="#42a834"/><circle cx="223.87" cy="288.13" r="15" fill="#42a834"/><circle cx="288.13" cy="288.13" r="15" fill="#42a834"/><circle cx="288.13" cy="223.87" r="15" fill="#42a834"/><circle cx="223.87" cy="223.87" r="15" fill="#42a834"/><circle cx="368.47" cy="256" r="15" fill="#42a834"/><circle cx="143.53" cy="256" r="15" fill="#42a834"/><circle cx="335.53" cy="176.48" r="15" fill="#42a834"/><circle cx="176.47" cy="335.53" r="15" fill="#42a834"/><circle cx="335.53" cy="335.53" r="15" fill="#42a834"/><circle cx="176.47" cy="176.48" r="15" fill="#42a834"/></svg>
